<?xml version="1.0" encoding="utf-8"?>
<svg version="1.0" width="242.000000pt" height="192.000000pt" viewBox="0 0 242.000000 192.000000" preserveAspectRatio="xMidYMid meet" xmlns="http://www.w3.org/2000/svg">
  <g transform="translate(0.000000,192.000000) scale(0.100000,-0.100000)" fill="#000000" stroke="none">
    <path d="M1178 1888 c-15 -13 -658 -1020 -658 -1032 0 -3 44 -6 99 -6 l98 0 7 49 c20 152 190 331 349 365 l28 7 -3 -103 -3 -102 -30 -6 c-107 -22 -165 -138 -115 -227 25 -45 58 -67 113 -77 l37 -7 0 -69 0 -69 -82 -3 c-78 -3 -83 -4 -86 -26 -6 -41 14 -52 94 -52 l74 0 0 -100 0 -100 -27 6 c-52 11 -150 64 -198 106 -62 55 -122 147 -142 221 l-16 58 -145 -3 -145 -3 -204 -320 c-122 -192 -202 -328 -201 -340 3 -20 11 -20 1188 -20 1177 0 1185 0 1188 20 1 12 -79 148 -201 340 l-204 320 -145 3 -145 3 -16 -58 c-20 -74 -80 -166 -142 -221 -48 -42 -146 -95 -198 -106 l-28 -7 3 103 3 102 30 6 c107 22 165 138 115 228 -23 40 -59 64 -118 76 l-32 8 0 68 0 69 83 3 c77 3 82 4 85 26 6 41 -14 52 -94 52 l-74 0 0 100 0 100 28 -6 c158 -34 328 -213 348 -365 l7 -49 98 0 c55 0 99 3 99 6 0 12 -643 1019 -658 1032 -9 6 -23 12 -32 12 -9 0 -23 -6 -32 -12z m52 -713 c0 -98 -1 -105 -20 -105 -19 0 -20 7 -20 105 0 98 1 105 20 105 19 0 20 -7 20 -105z m0 -260 c0 -68 -2 -75 -20 -75 -18 0 -20 7 -20 75 0 68 2 75 20 75 18 0 20 -7 20 -75z m-130 -5 c0 -67 -1 -70 -24 -70 -32 0 -69 46 -60 74 9 30 45 66 66 66 16 0 18 -9 18 -70z m130 -225 c0 -68 -2 -75 -20 -75 -18 0 -20 7 -20 75 0 68 2 75 20 75 18 0 20 -7 20 -75z m159 48 c14 -17 19 -33 15 -47 -9 -30 -45 -66 -66 -66 -16 0 -18 9 -18 70 0 67 1 70 24 70 15 0 33 -11 45 -27z m-159 -308 c0 -98 -1 -105 -20 -105 -19 0 -20 7 -20 105 0 98 1 105 20 105 19 0 20 -7 20 -105z" style="paint-order: fill; stroke: rgb(85, 218, 185); fill: rgb(43, 45, 66);"/>
  </g>
</svg>